<?xml version="1.0" standalone="no"?>
<!DOCTYPE svg PUBLIC "-//W3C//DTD SVG 1.0//EN" "http://www.w3.org/TR/2001/REC-SVG-20010904/DTD/svg10.dtd">

<svg xmlns="http://www.w3.org/2000/svg" xmlns:xlink="http://www.w3.org/1999/xlink" viewBox="0 0 40 40" id="logo">

<g id="logo_logo" transform="translate(15.000000, 16.000000)">
	<path fill="#FFB000" id="logo_Fill-18" class="st0" d="M-1.021-0.867l-3.336,4.061l7.901,6.479c0.473,0.388,1.062,0.598,1.668,0.598   c0.091,0,0.182-0.005,0.273-0.014c0.699-0.073,1.34-0.422,1.778-0.971L21.436-8.41l-4.103-3.285L4.825,3.923L-1.021-0.867z"></path>
	<path fill="#4B6FDE" id="logo_Fill-19" class="st1" d="M5,19.5c-8.547,0-15.5-6.953-15.5-15.499S-3.547-11.5,5-11.5V-16C-6.028-16-15-7.028-15,3.999   S-6.028,24,5,24s20-8.972,20-19.999h-4.5C20.5,12.547,13.547,19.5,5,19.5"></path>
</g>
</svg>
